
[code]
The Smurfs 2011 TS XViD - IMAGiNE

Ripper ...........: IMAGiNE                                      IMDB Rating.......:4.2/10 
Video Codec.......: XVID                                         Release Date......:03/07/11
Audio Codec.......: MP3                                          Theatre Date......:29/07/11
Audio Bitrate.....: 128                                          Runtime...........:1h 34mn
Subtitles.........: NIL                                          Language..........:ENGLISH
Resolution........: 720 x 384                                    IMDb URL.......... http://www.imdb.com/title/tt0472181/


DETAILS:


Video
ID                               : 0
Format                           : MPEG-4 Visual
Format profile                   : Advanced Simple@L5
Format settings, BVOP            : 2
Format settings, QPel            : No
Format settings, GMC             : No warppoints
Format settings, Matrix          : Default (MPEG)
Muxing mode                      : Packed bitstream
Codec ID                         : XVID
Codec ID/Hint                    : XviD
Duration                         : 1h 34mn
Bit rate                         : 1 949 Kbps
Width                            : 720 pixels
Height                           : 384 pixels
Display aspect ratio             : 1.875
Frame rate                       : 29.970 fps
Color space                      : YUV
Chroma subsampling               : 4:2:0
Bit depth                        : 8 bits
Scan type                        : Progressive
Compression mode                 : Lossy
Bits/(Pixel*Frame)               : 0.235
Stream size                      : 1.28 GiB (93%)
Writing library                  : XviD 64

Audio
ID                               : 1
Format                           : MPEG Audio
Format version                   : Version 1
Format profile                   : Layer 3
Mode                             : Joint stereo
Mode extension                   : MS Stereo
Codec ID                         : 55
Codec ID/Hint                    : MP3
Duration                         : 1h 34mn
Bit rate mode                    : Constant
Bit rate                         : 128 Kbps
Channel(s)                       : 2 channels
Sampling rate                    : 44.1 KHz
Compression mode                 : Lossy
Stream size                      : 86.1 MiB (6%)
Alignment                        : Split accross interleaves
Interleave, duration             : 33 ms (1.00 video frame)
Writing library                  : LAME3.98r
Encoding settings                : -m j -V 4 -q 2 -lowpass 17 -b 128

Plot:
When the evil wizard Gargamel chases the tiny blue Smurfs out of their village, they tumble from their magical world and into ours.

SOURCES:
VIDEO: ...........   The.Smurfs.2011.CAM.XViD-GANE13
AUDIO: ...........   Thanks matey

NOTES:
IMAGiNE bringing you another release.......... The Smurfs 2011 TS Ok video First off we made a script to sharpen,crop,resize then we restored the whitebalance which threw some of the other colors out a bit so we filtered the rgb to bring it all back in theres lots of blurry parts and thats something we cant fix now on to the audio  is ok LiNE we filtered synced and muxed to our encode.
fyi ok first ts video 6 audio 6 
   ....
Enjoy Folks!
[/code]
Screens:
[img]http://img828.imageshack.us/img828/4682/58950577.png[/img]
[img]http://img850.imageshack.us/img850/8331/10227037.png[/img]
[img]http://img10.imageshack.us/img10/6577/51086861.png[/img]
[img]http://img33.imageshack.us/img33/2751/12117951.png[/img]
[img]http://img835.imageshack.us/img835/135/smurfas.jpg[/img]